<?xml version="1.0" encoding="UTF-8" standalone="no"?>
<!DOCTYPE svg PUBLIC "-//W3C//DTD SVG 1.1//EN" "http://www.w3.org/Graphics/SVG/1.1/DTD/svg11.dtd">
<svg xmlns="http://www.w3.org/2000/svg" version="1.1" viewBox="0 0 512 512">
<path fill="#2a2a29" d="M 353.37,166.08 Q 364.22,179.07 370.75,190.75 Q 375.84,199.87 383.09,216.41 Q 384.06,218.64 388.87,231.31 Q 391.72,238.80 395.43,245.94 Q 395.48,246.05 396.66,249.22 Q 397.71,252.04 401.15,254.33 Q 402.18,255.02 402.88,256.04 Q 408.16,263.86 414.15,270.11 Q 421.38,277.65 423.69,284.06 Q 425.35,288.68 424.69,294.61 Q 424.03,300.64 422.65,304.85 Q 420.59,311.19 415.24,315.73 Q 407.64,322.21 397.30,323.82 Q 396.79,323.90 396.28,323.86 Q 387.30,323.11 380.06,320.44 Q 379.02,320.05 378.05,320.85 Q 377.64,321.18 377.19,321.26 Q 373.95,321.85 372.08,324.34 Q 370.40,326.59 370.36,326.64 Q 366.36,331.36 364.41,337.27 A 1.80,1.68 49.2 0 0 364.37,338.24 Q 367.51,351.18 363.94,363.40 Q 361.48,371.84 356.33,376.76 Q 350.51,382.33 341.96,384.02 Q 338.57,384.69 335.17,385.24 Q 331.69,385.79 328.32,385.34 Q 324.72,384.85 319.75,384.00 Q 312.81,382.81 307.10,379.94 Q 307.05,379.91 302.77,377.09 Q 300.85,375.82 298.63,375.17 Q 296.36,374.50 294.24,375.19 Q 290.13,376.51 288.44,380.43 Q 288.15,381.09 287.70,384.68 Q 287.45,386.73 286.39,388.41 Q 285.50,389.81 283.48,390.84 Q 272.69,396.30 259.35,397.64 Q 258.78,397.70 258.20,397.62 Q 249.62,396.51 241.74,394.38 Q 235.24,392.63 227.72,390.21 Q 223.07,388.72 218.55,386.87 Q 214.60,385.26 209.88,382.43 Q 195.14,373.62 180.40,364.82 Q 168.88,357.94 163.57,354.03 Q 131.60,330.52 116.01,293.21 Q 113.74,287.77 112.49,282.00 Q 109.83,269.73 109.17,257.21 Q 109.16,257.12 108.43,248.83 Q 108.11,245.20 108.40,241.55 Q 108.88,235.49 108.89,235.43 Q 109.84,215.30 112.00,204.00 Q 115.51,185.60 124.89,169.41 Q 127.47,164.96 130.85,161.15 Q 130.92,161.08 134.41,156.70 Q 135.77,155.00 137.52,153.67 Q 140.23,151.60 140.26,151.58 Q 156.34,138.26 175.74,131.09 Q 184.35,127.91 194.86,125.22 Q 206.81,122.16 216.75,121.75 Q 226.37,121.35 231.76,120.73 Q 234.13,120.45 236.12,120.69 Q 237.58,120.86 239.05,121.05 Q 240.49,121.24 241.98,121.25 Q 257.25,121.31 272.21,123.97 Q 281.87,125.69 291.55,128.97 Q 310.28,135.30 328.44,145.56 Q 335.85,149.75 341.96,154.61 Q 347.41,158.94 353.37,166.08 ZM 251.56,215.94 Q 247.92,213.65 244.31,216.31 Q 241.33,218.51 241.32,223.25 Q 241.29,230.49 243.45,237.40 Q 252.08,265.10 278.97,265.10 Q 287.96,265.10 294.98,261.48 Q 305.53,256.06 311.30,244.81 Q 316.68,234.30 316.64,222.65 Q 316.63,218.06 315.43,215.52 Q 313.55,211.54 309.22,210.82 Q 305.11,210.14 302.30,212.61 Q 299.24,215.30 299.67,220.26 Q 300.89,234.26 291.66,243.53 Q 288.48,246.73 285.07,247.84 Q 281.43,249.02 277.00,248.75 Q 270.49,248.35 265.88,245.08 Q 261.97,242.31 259.15,236.19 Q 256.27,229.94 255.26,223.02 Q 254.83,220.10 254.34,219.08 Q 253.40,217.09 251.56,215.94 ZM 189.56,224.94 Q 186.00,221.31 181.19,222.94 Q 178.07,223.99 176.63,227.16 Q 175.84,228.90 175.56,232.97 Q 175.15,238.97 174.75,241.25 Q 172.62,253.47 161.56,256.81 Q 154.57,258.93 149.19,254.72 Q 146.58,252.69 144.70,249.04 Q 142.79,245.31 142.50,242.00 Q 141.90,235.03 141.19,233.31 Q 138.87,227.68 133.62,228.96 Q 131.77,229.40 130.41,230.86 Q 128.82,232.55 128.50,234.25 Q 125.16,251.72 135.69,264.06 Q 142.60,272.17 152.96,273.62 Q 161.55,274.83 169.78,271.60 Q 177.99,268.38 183.90,261.14 Q 189.75,253.95 191.27,244.75 Q 192.40,237.92 192.21,231.00 Q 192.11,227.53 189.56,224.94 ZM 224.50,236.46 Q 220.32,237.13 219.06,239.56 Q 216.68,244.15 214.62,249.10 A 0.69,0.69 36.7 0 1 213.45,249.27 Q 211.57,246.94 209.23,244.52 Q 207.11,242.31 204.37,242.10 Q 201.77,241.90 199.62,243.65 Q 196.25,246.40 197.94,251.06 Q 199.95,256.66 204.92,261.81 Q 209.08,266.11 213.24,266.83 Q 219.43,267.90 224.19,262.44 Q 229.77,256.03 232.54,247.00 Q 234.43,242.18 230.75,238.50 Q 228.03,235.78 224.50,236.46 Z"/>
<path fill="#ffffff" d="M 251.56,215.94 Q 253.40,217.09 254.34,219.08 Q 254.83,220.10 255.26,223.02 Q 256.27,229.94 259.15,236.19 Q 261.97,242.31 265.88,245.08 Q 270.49,248.35 277.00,248.75 Q 281.43,249.02 285.07,247.84 Q 288.48,246.73 291.66,243.53 Q 300.89,234.26 299.67,220.26 Q 299.24,215.30 302.30,212.61 Q 305.11,210.14 309.22,210.82 Q 313.55,211.54 315.43,215.52 Q 316.63,218.06 316.64,222.65 Q 316.68,234.30 311.30,244.81 Q 305.53,256.06 294.98,261.48 Q 287.96,265.10 278.97,265.10 Q 252.08,265.10 243.45,237.40 Q 241.29,230.49 241.32,223.25 Q 241.33,218.51 244.31,216.31 Q 247.92,213.65 251.56,215.94 Z"/>
<path fill="#ffffff" d="M 189.56,224.94 Q 192.11,227.53 192.21,231.00 Q 192.40,237.92 191.27,244.75 Q 189.75,253.95 183.90,261.14 Q 177.99,268.38 169.78,271.60 Q 161.55,274.83 152.96,273.62 Q 142.60,272.17 135.69,264.06 Q 125.16,251.72 128.50,234.25 Q 128.82,232.55 130.41,230.86 Q 131.77,229.40 133.62,228.96 Q 138.87,227.68 141.19,233.31 Q 141.90,235.03 142.50,242.00 Q 142.79,245.31 144.70,249.04 Q 146.58,252.69 149.19,254.72 Q 154.57,258.93 161.56,256.81 Q 172.62,253.47 174.75,241.25 Q 175.15,238.97 175.56,232.97 Q 175.84,228.90 176.63,227.16 Q 178.07,223.99 181.19,222.94 Q 186.00,221.31 189.56,224.94 Z"/>
<path fill="#ffffff" d="M 232.54,247.00 Q 233.02,238.13 224.50,236.46 Q 228.03,235.78 230.75,238.50 Q 234.43,242.18 232.54,247.00 Z"/>
<path fill="#ffffff" d="M 224.50,236.46 Q 233.02,238.13 232.54,247.00 Q 229.77,256.03 224.19,262.44 Q 219.43,267.90 213.24,266.83 Q 209.08,266.11 204.92,261.81 Q 199.95,256.66 197.94,251.06 Q 196.25,246.40 199.62,243.65 Q 201.77,241.90 204.37,242.10 Q 207.11,242.31 209.23,244.52 Q 211.57,246.94 213.45,249.27 A 0.69,0.69 36.7 0 0 214.62,249.10 Q 216.68,244.15 219.06,239.56 Q 220.32,237.13 224.50,236.46 Z"/>
</svg>
